<svg xmlns="http://www.w3.org/2000/svg" xmlns:xlink="http://www.w3.org/1999/xlink" aria-hidden="true" role="img" class="iconify iconify--logos" width="256" height="256" preserveAspectRatio="xMidYMid meet" viewBox="0 0 256 256"><path fill="#61DAFB" d="M246.68 128.03a10.63 10.63 0 0 1-3.43 8.07l-63.5 48.1a10.58 10.58 0 0 1-16.1-8.07v-29.59a84.52 84.52 0 0 0-59.65-22.68V172a10.58 10.58 0 0 1-16.1 8.07l-63.5-48.1a10.63 10.63 0 0 1 0-16.14l63.5-48.1a10.58 10.58 0 0 1 16.1 8.07v26.24a84.52 84.52 0 0 0 59.65-22.68V57.93a10.58 10.58 0 0 1 16.1-8.07l63.5 48.1a10.63 10.63 0 0 1 3.43 8.07Z"></path></svg>